<?xml version="1.0" encoding="utf-8"?>
<!-- Generator: Adobe Illustrator 29.2.1, SVG Export Plug-In . SVG Version: 9.03 Build 55982)  -->
<svg version="1.1" id="Layer_1" xmlns="http://www.w3.org/2000/svg" xmlns:xlink="http://www.w3.org/1999/xlink" x="0px" y="0px"
	 viewBox="0 0 512 512" style="enable-background:new 0 0 512 512;" xml:space="preserve">
<style type="text/css">
	.Drop_x0020_Shadow{fill:none;}
	.Round_x0020_Corners_x0020_2_x0020_pt{fill:#FFFFFF;stroke:#000000;stroke-miterlimit:10;}
	.Live_x0020_Reflect_x0020_X{fill:none;}
	.Bevel_x0020_Soft{fill:url(#SVGID_1_);}
	.Dusk{fill:#FFFFFF;}
	.Foliage_GS{fill:#FFDD00;}
	.Pompadour_GS{fill-rule:evenodd;clip-rule:evenodd;fill:#44ADE2;}
</style>
<linearGradient id="SVGID_1_" gradientUnits="userSpaceOnUse" x1="0" y1="0" x2="0.7071" y2="0.7071">
	<stop  offset="0" style="stop-color:#DEDFE3"/>
	<stop  offset="0.1738" style="stop-color:#D8D9DD"/>
	<stop  offset="0.352" style="stop-color:#C9CACD"/>
	<stop  offset="0.5323" style="stop-color:#B4B5B8"/>
	<stop  offset="0.7139" style="stop-color:#989A9C"/>
	<stop  offset="0.8949" style="stop-color:#797C7E"/>
	<stop  offset="1" style="stop-color:#656B6C"/>
</linearGradient>
<g>
	<path d="M512,256C512,114.6,397.4,0,256,0C196.5,0,141.7,20.4,98.3,54.5c45.8,6.7,81,46,81,93.7h0v107.5h0v62.5v32.4v15.8
		l-47.4-28.5c-28.3-16.4-47.4-47-47.4-82.1h0V148.2h0V66C32.6,112.9,0,180.6,0,256c0,141.4,114.6,256,256,256
		c43.7,0,84.9-11,120.9-30.3l-53-30.7l0,0l-82.1-47.5l0,0c-14.5-8.4-26-20.1-34-33.6s-12.5-28.7-13.2-44.4h-0.1v0v-56.1v0h0.2
		c0.2-3.5,0.6-6.9,1.2-10.3c0.2-1.1,0.4-2.2,0.7-3.3c0.5-2.3,1-4.7,1.7-6.9c0.3-1.2,0.7-2.4,1.1-3.6c0.8-2.5,1.7-4.9,2.7-7.3
		c0.3-0.8,0.6-1.7,1-2.5c0-0.1,0.1-0.1,0.1-0.2c0,0,0,0,0,0l0,0c0,0,0,0,0,0c0,0,0,0,0,0c7.9-17.3,21-32.5,38.7-42.7v0l0,0
		l82.1-47.5l0,0l82.1-47.5c26.3,45.3,10.8,103.3-34.5,129.6l0,0l-82,47.5l0,0L249.1,298l40.3,23.3l0,0l82.1,47.5l0,0
		c17,9.8,29.8,24.2,37.8,40.6c5.3,11,8.5,22.9,9.3,35c0.2,3,0.3,6.1,0.2,9.2C475.7,406.7,512,335.6,512,256z"/>
</g>
</svg>
