<?xml version="1.0" encoding="utf-8"?>
<!-- Generator: Adobe Illustrator 29.2.1, SVG Export Plug-In . SVG Version: 9.03 Build 55982)  -->
<svg version="1.1" id="Layer_1" xmlns="http://www.w3.org/2000/svg" xmlns:xlink="http://www.w3.org/1999/xlink" x="0px" y="0px"
	 viewBox="0 0 512 170" style="enable-background:new 0 0 512 170;" xml:space="preserve">
<style type="text/css">
	.Drop_x0020_Shadow{fill:none;}
	.Round_x0020_Corners_x0020_2_x0020_pt{fill:#FFFFFF;stroke:#231F20;stroke-miterlimit:10;}
	.Live_x0020_Reflect_x0020_X{fill:none;}
	.Bevel_x0020_Soft{fill:url(#SVGID_1_);}
	.Dusk{fill:#FFFFFF;}
	.Foliage_GS{fill:#FFDD00;}
	.Pompadour_GS{fill-rule:evenodd;clip-rule:evenodd;fill:#44ACE1;}
	.st0{fill:#4A164B;}
	.st1{fill:url(#SVGID_00000029740419045468340160000002662937567952967603_);}
</style>
<linearGradient id="SVGID_1_" gradientUnits="userSpaceOnUse" x1="0" y1="0" x2="0.7071" y2="0.7071">
	<stop  offset="0" style="stop-color:#DEDFE3"/>
	<stop  offset="0.1783" style="stop-color:#DADBDF"/>
	<stop  offset="0.3611" style="stop-color:#CECFD3"/>
	<stop  offset="0.546" style="stop-color:#B9BCBF"/>
	<stop  offset="0.7324" style="stop-color:#9CA0A2"/>
	<stop  offset="0.9181" style="stop-color:#787D7E"/>
	<stop  offset="1" style="stop-color:#656B6C"/>
</linearGradient>
<g>
	<g>
		<polygon class="st0" points="277.3,65.5 262.8,65.5 224.7,102.5 224.7,25.8 213,25.8 213,143.8 224.7,143.8 224.7,104.8 
			263.5,143.8 279,143.8 238.2,103.1 		"/>
		<path class="st0" d="M340.5,68.6c-5.5-3.2-11.8-4.8-18.9-4.8c-7.6,0-14.4,1.8-20.5,5.3c-6.1,3.6-10.9,8.4-14.5,14.6
			c-3.6,6.2-5.3,13.1-5.3,20.7c0,7.8,1.8,14.8,5.4,21c3.6,6.2,8.5,11.1,14.7,14.7c6.2,3.6,13.3,5.3,21.2,5.3c6.2,0,12-1.2,17.4-3.6
			c5.4-2.4,9.9-5.7,13.6-10.1l-7.5-7.7c-2.8,3.4-6.2,6-10.2,7.7c-4,1.7-8.4,2.6-13.2,2.6c-5.9,0-11.1-1.3-15.6-3.8
			c-4.5-2.6-8-6.1-10.5-10.7c-1.8-3.3-2.9-7-3.4-11h64.2c0.3-1.6,0.6-2.9,0.7-4.1c0.1-1.2,0.2-2.2,0.2-3.1c0-7.4-1.6-14-4.7-19.7
			C350.4,76.3,346,71.9,340.5,68.6z M306.5,78.3c4.2-2.4,9.2-3.7,14.8-3.7c5.4,0,10.1,1.1,13.9,3.4c3.8,2.3,6.8,5.5,8.8,9.7
			c1.6,3.3,2.5,7,2.8,11.2h-53.5c0.5-3.9,1.6-7.3,3.2-10.4C298.9,84.2,302.2,80.7,306.5,78.3z"/>
		<rect x="373.9" y="25.8" class="st0" width="11.7" height="117.9"/>
		<rect x="407.1" y="25.8" class="st0" width="11.7" height="117.9"/>
		<path class="st0" d="M507.3,82.1c-3.2-5.7-7.5-10.2-13-13.4c-5.5-3.2-11.8-4.8-18.9-4.8c-7.6,0-14.4,1.8-20.5,5.3
			c-6.1,3.6-10.9,8.4-14.5,14.6c-3.6,6.2-5.3,13.1-5.3,20.7c0,7.8,1.8,14.8,5.4,21c3.6,6.2,8.5,11.1,14.7,14.7
			c6.2,3.6,13.3,5.3,21.2,5.3c6.2,0,12-1.2,17.4-3.6c5.4-2.4,9.9-5.7,13.6-10.1l-7.5-7.7c-2.8,3.4-6.2,6-10.2,7.7
			c-4,1.7-8.4,2.6-13.2,2.6c-5.9,0-11.1-1.3-15.6-3.8c-4.5-2.6-8-6.1-10.5-10.7c-1.8-3.3-2.9-7-3.4-11h64.2c0.3-1.6,0.6-2.9,0.7-4.1
			c0.1-1.2,0.2-2.2,0.2-3.1C512,94.4,510.4,87.8,507.3,82.1z M460.2,78.3c4.2-2.4,9.2-3.7,14.8-3.7c5.4,0,10.1,1.1,13.9,3.4
			c3.8,2.3,6.8,5.5,8.8,9.7c1.6,3.3,2.5,7,2.8,11.2h-53.5c0.5-3.9,1.6-7.3,3.2-10.4C452.7,84.2,456,80.7,460.2,78.3z"/>
	</g>
	<g>
		
			<linearGradient id="SVGID_00000055694071079992276980000011227897882544467119_" gradientUnits="userSpaceOnUse" x1="0" y1="84.9386" x2="169.8771" y2="84.9386">
			<stop  offset="0" style="stop-color:#EAB12C"/>
			<stop  offset="1" style="stop-color:#DF205B"/>
		</linearGradient>
		<path style="fill:url(#SVGID_00000055694071079992276980000011227897882544467119_);" d="M169.9,84.9C169.9,38,131.8,0,84.9,0
			C65.2,0,47,6.8,32.6,18.1c15.2,2.2,26.9,15.3,26.9,31.1h0v35.7h0v20.7v10.7v5.2l-15.7-9.4C34.3,106.6,28,96.5,28,84.8h0V49.2h0
			V21.9c-17.2,15.5-28,38-28,63c0,46.9,38,84.9,84.9,84.9c14.5,0,28.2-3.6,40.1-10.1l-17.6-10.2l0,0l-27.2-15.8l0,0
			c-4.8-2.8-8.6-6.7-11.3-11.1c-2.7-4.5-4.2-9.5-4.4-14.7h0v0V89.4v0h0.1c0.1-1.1,0.2-2.3,0.4-3.4c0.1-0.4,0.1-0.7,0.2-1.1
			c0.2-0.8,0.3-1.5,0.6-2.3c0.1-0.4,0.2-0.8,0.4-1.2c0.3-0.8,0.6-1.6,0.9-2.4c0.1-0.3,0.2-0.6,0.3-0.8c0,0,0,0,0-0.1c0,0,0,0,0,0
			l0,0c0,0,0,0,0,0c0,0,0,0,0,0c2.6-5.7,7-10.8,12.8-14.2v0l0,0l27.2-15.8l0,0l27.2-15.8c8.7,15,3.6,34.3-11.4,43l0,0L96,91.1l0,0
			l-13.4,7.7l13.4,7.7l0,0l27.2,15.8l0,0c5.6,3.3,9.9,8,12.5,13.5c1.8,3.6,2.8,7.6,3.1,11.6c0.1,1,0.1,2,0.1,3
			C157.8,135,169.9,111.4,169.9,84.9z"/>
	</g>
</g>
</svg>
